<svg xmlns="http://www.w3.org/2000/svg" xml:space="preserve" id="Layer_1" x="0" y="0" style="enable-background:new 0 0 622.04 92.34" version="1.1" viewBox="0 0 622.04 92.34">
  <g style="opacity:.98">
    <path d="M140.04 4.95v49.34c0 7.41-1.42 10.92-2.63 12.55-2.58 3.56-6.18 5.28-10.97 5.28-4.79 0-8.37-1.72-10.92-5.23-1.74-2.49-2.63-6.72-2.63-12.6V4.95H94.88v52.53c0 8.88 2.86 16.36 8.46 22.17 6.23 6.46 13.99 9.72 23.1 9.72 9.09 0 16.87-3.25 23.15-9.72 5.6-5.81 8.44-13.29 8.44-22.17V4.95h-17.99zm11.55 52.53c0 7.27-2.16 13.06-6.62 17.71-5.09 5.21-11.13 7.74-18.52 7.74-7.41 0-13.43-2.53-18.48-7.74-4.46-4.65-6.65-10.44-6.65-17.71V11.39h5.14V54.3c0 7.34 1.23 12.67 3.83 16.34 3.83 5.25 9.27 7.93 16.15 7.93 6.9 0 12.34-2.67 16.18-7.93 2.58-3.53 3.84-8.88 3.84-16.34V11.39h5.14v46.09zM216.36 70.68V4.95h-18.01v83.02h45.37V70.68h-27.36zm20.92 10.88h-32.49V11.39h5.14v65.73h27.36v4.44zM279.44 4.95v83.02h17.99V4.95h-17.99zM291 81.56h-5.11V11.39H291v70.17zM368.28 24.64l-16.99 35.33h33.19l-16.2-35.33zm-.14 14.99 6.51 14.2H361.3l6.84-14.2zm.14-14.99-16.99 35.33h33.19l-16.2-35.33zm-.14 14.99 6.51 14.2H361.3l6.84-14.2zm.14-14.99-16.99 35.33h33.19l-16.2-35.33zm-.14 14.99 6.51 14.2H361.3l6.84-14.2zm.14-14.99-16.99 35.33h33.19l-16.2-35.33zm-.14 14.99 6.51 14.2H361.3l6.84-14.2zm.14-14.99-16.99 35.33h33.19l-16.2-35.33zm-.14 14.99 6.51 14.2H361.3l6.84-14.2zm.14-14.99-16.99 35.33h33.19l-16.2-35.33zm-.14 14.99 6.51 14.2H361.3l6.84-14.2zm.14-14.99-16.99 35.33h33.19l-16.2-35.33zm-.14 14.99 6.51 14.2H361.3l6.84-14.2zm.14-14.99-16.99 35.33h33.19l-16.2-35.33zm-.14 14.99 6.51 14.2H361.3l6.84-14.2zm.14-14.99-16.99 35.33h33.19l-16.2-35.33zm-.14 14.99 6.51 14.2H361.3l6.84-14.2zm.14-14.99-16.99 35.33h33.19l-16.2-35.33zm-.14 14.99 6.51 14.2H361.3l6.84-14.2zm.32-39.49-43.02 87.83h19.57l8.53-17.69h28.61l8.04 17.69h19.73L368.46.14zm17.92 64.03h-36.96l-8.53 17.69h-5.35l32.79-67.01L400 81.86h-5.58l-8.04-17.69zm-35.09-4.2h33.19l-16.2-35.33-16.99 35.33zm10.01-6.14 6.83-14.2 6.51 14.2H361.3zm6.98-29.19-16.99 35.33h33.19l-16.2-35.33zm-.14 14.99 6.51 14.2H361.3l6.84-14.2zm.14-14.99-16.99 35.33h33.19l-16.2-35.33zm-.14 14.99 6.51 14.2H361.3l6.84-14.2zm.14-14.99-16.99 35.33h33.19l-16.2-35.33zm-.14 14.99 6.51 14.2H361.3l6.84-14.2zm.14-14.99-16.99 35.33h33.19l-16.2-35.33zm-.14 14.99 6.51 14.2H361.3l6.84-14.2zm.14-14.99-16.99 35.33h33.19l-16.2-35.33zm-.14 14.99 6.51 14.2H361.3l6.84-14.2zm.14-14.99-16.99 35.33h33.19l-16.2-35.33zm-.14 14.99 6.51 14.2H361.3l6.84-14.2zm.14-14.99-16.99 35.33h33.19l-16.2-35.33zm-.14 14.99 6.51 14.2H361.3l6.84-14.2zm.14-14.99-16.99 35.33h33.19l-16.2-35.33zm-.14 14.99 6.51 14.2H361.3l6.84-14.2zm.14-14.99-16.99 35.33h33.19l-16.2-35.33zm-.14 14.99 6.51 14.2H361.3l6.84-14.2zm.14-14.99-16.99 35.33h33.19l-16.2-35.33zm-.14 14.99 6.51 14.2H361.3l6.84-14.2zM492.16 4.83v47.83L436.31 0v88.02h17.99V39.84l55.85 52.5V4.83h-17.99zm11.57 73.1L447.88 25.4v56.83h-5.14V14.46l55.85 52.67V10.64h5.14v67.29zM580.39 24.64 563.4 59.97h33.19l-16.2-35.33zm-.14 14.99 6.51 14.2h-13.34l6.83-14.2zm.14-14.99L563.4 59.97h33.19l-16.2-35.33zm-.14 14.99 6.51 14.2h-13.34l6.83-14.2zm.14-14.99L563.4 59.97h33.19l-16.2-35.33zm-.14 14.99 6.51 14.2h-13.34l6.83-14.2zm.14-14.99L563.4 59.97h33.19l-16.2-35.33zm-.14 14.99 6.51 14.2h-13.34l6.83-14.2zm.14-14.99L563.4 59.97h33.19l-16.2-35.33zm-.14 14.99 6.51 14.2h-13.34l6.83-14.2zm.14-14.99L563.4 59.97h33.19l-16.2-35.33zm-.14 14.99 6.51 14.2h-13.34l6.83-14.2zm.14-14.99L563.4 59.97h33.19l-16.2-35.33zm-.14 14.99 6.51 14.2h-13.34l6.83-14.2zm.14-14.99L563.4 59.97h33.19l-16.2-35.33zm-.14 14.99 6.51 14.2h-13.34l6.83-14.2zm.14-14.99L563.4 59.97h33.19l-16.2-35.33zm-.14 14.99 6.51 14.2h-13.34l6.83-14.2zm.14-14.99L563.4 59.97h33.19l-16.2-35.33zm-.14 14.99 6.51 14.2h-13.34l6.83-14.2zm.32-39.49-43.02 87.83h19.57l8.53-17.69h28.61l8.04 17.69h19.73L580.57.14zm17.92 64.03h-36.96L553 81.86h-5.35l32.79-67.01 31.66 67.01h-5.58l-8.03-17.69zm-35.09-4.2h33.19l-16.2-35.33-16.99 35.33zm10.01-6.14 6.83-14.2 6.51 14.2h-13.34zm6.98-29.19L563.4 59.97h33.19l-16.2-35.33zm-.14 14.99 6.51 14.2h-13.34l6.83-14.2zm.14-14.99L563.4 59.97h33.19l-16.2-35.33zm-.14 14.99 6.51 14.2h-13.34l6.83-14.2zm.14-14.99L563.4 59.97h33.19l-16.2-35.33zm-.14 14.99 6.51 14.2h-13.34l6.83-14.2zm.14-14.99L563.4 59.97h33.19l-16.2-35.33zm-.14 14.99 6.51 14.2h-13.34l6.83-14.2zm.14-14.99L563.4 59.97h33.19l-16.2-35.33zm-.14 14.99 6.51 14.2h-13.34l6.83-14.2zm.14-14.99L563.4 59.97h33.19l-16.2-35.33zm-.14 14.99 6.51 14.2h-13.34l6.83-14.2zm.14-14.99L563.4 59.97h33.19l-16.2-35.33zm-.14 14.99 6.51 14.2h-13.34l6.83-14.2zm.14-14.99L563.4 59.97h33.19l-16.2-35.33zm-.14 14.99 6.51 14.2h-13.34l6.83-14.2zm.14-14.99L563.4 59.97h33.19l-16.2-35.33zm-.14 14.99 6.51 14.2h-13.34l6.83-14.2zm.14-14.99L563.4 59.97h33.19l-16.2-35.33zm-.14 14.99 6.51 14.2h-13.34l6.83-14.2zM38.91 4.95v49.34c0 7.41-1.42 10.92-2.6 12.55-1.16 1.58-2.51 2.79-4.07 3.63-1.19.7-2.51 1.14-3.95 1.39-.4.09-.81.16-1.23.19-.74.14-1.51.19-2.3.19-5.88 0-10.81-3.33-13.85-7.86L0 77.07c.65.88 1.42 1.74 2.21 2.58.46.49.95.95 1.42 1.39 5.97 5.53 13.27 8.32 21.69 8.32 9.09 0 16.87-3.25 23.15-9.72 5.6-5.81 8.44-13.29 8.44-22.17V4.95h-18zm11.55 52.53c0 7.27-2.16 13.06-6.62 17.71-5.07 5.21-11.13 7.74-18.52 7.74-6.93 0-12.64-2.21-17.48-6.76l3.02-3.49c4.1 3.96 8.8 5.7 14.73 5.7 6.9 0 12.09-2.5 15.9-7.75 2.58-3.53 3.86-8.88 3.86-16.34v-42.9h5.11v46.09z" class="st2" />
  </g>
</svg>
