<svg xmlns="http://www.w3.org/2000/svg" xml:space="preserve" style="enable-background:new 0 0 954 78.3" viewBox="0 0 954 78.3"><path d="m409.4 16.9-35.9 61.4h-31.3l35.9-61.4H344l-35.9 61.4h-37.5l-5-48.5-28.5 48.5h-31.3L251.6 0h38l5 47.9 28-47.9H446l-9.9 16.9h-26.7zm319.7 44.5c-5.4 9.3-2.4 16.8 6.8 16.9h57.7c9.3 0 21.3-7.6 26.7-16.9l26.1-44.5h52.8l-71.7 61.4h89.2l9.9-16.9h-39.8L954 0H825l-35.9 61.4h-28.7L796.3 0H765l-35.9 61.4zM205.4 0h-29L87.1 78.2h118.3V0zm-30.9 61.4h-36.9l37.9-33.2-1 33.2zM510 0h-29.1l-89.2 78.2H510V0zm-30.9 61.4h-36.9l37.9-33.2-1 33.2zM27.9 30.7c-5.4 9.3-2.4 16.8 6.8 16.9h37.1l-8.1 13.8H9.9L0 78.2h68.2c9.3 0 21.3-7.6 26.7-16.9l8.1-13.8c5.5-9.3 2.3-16.9-7-16.9H59l8.1-13.8h53.8l10-16.8H62.7c-9.3 0-21.3 7.6-26.8 16.9l-8 13.8zm545.2 30.7 26.1-44.5h44.6L653.7 0h-59c-9.3 0-21.3 7.6-26.7 16.9l-26.1 44.5v.1c-5.4 9.2-2.4 16.8 6.8 16.9h59.2l9.9-16.9-44.7-.1zM667 0l-45.9 78.2h31.3l15.1-25.8h6.3l10.7 25.8h33l-13-25.8h.1c9.3 0 21.3-7.6 26.8-16.9l11-18.7c5.4-9.3 2.3-16.9-7-16.9-.2.1-68.4.1-68.4.1zm33 35.6h-22.6l11-18.7h22.5L700 35.6z"/></svg>
